<svg xmlns="http://www.w3.org/2000/svg" viewBox="0 0 618.57 750.4"><path d="M507.29,648.23C531.81,656,566.77,641.36,589,616c24.05-27.44,49.54-81.38,54.14-185.72,4.52-102.57-35.43-252.14-46.33-293.58C571.51,40.32,487.1,26.77,485.12,26.76c-80.57-3.59-153.83,40.83-261.35,123.65-98.23,81.71-156.07,153-174.21,217.08-6.47,22.84-1.11,38.74,4.33,54.67C60.25,440.81,76.08,451,76.48,448c0,0,15.7-19,22.13-24.58-16.09-31.41,3.16-73.63,24.3-98.39-.49-.15-1-.31-1.46-.49-13.09-1.39-18.13-19.66-14.11-30.49,4.42-11.9,16.89-16.86,31.39-14.26,7.83,1.41,14.78,11.38,15.09,21.7,68.92-34.29,98,12.43,98,10.09,0-35.23,57.47-76.77,128.77-63,46.15,8.89,90.11,57.59,103.09,77.93,13.76,21.55,25.54,74.5,4.54,111.39A96.49,96.49,0,0,1,511.43,468c30.95,63.26,30.28,112.47.78,171.44a112.21,112.21,0,0,1-33.51,40c-49,36.24-104.79,33.34-151.26,33.33-113.66-3.23-220.56-17.15-254-36-79.64-44.21-35.69-170.42,3-228.73M291.77,235.77c-3.47,11.2-16.9,19.32-30.81,14.14-15.45-5.44-18.12-19.66-14.1-30.49,4.41-11.9,18.14-22.36,31.39-14.26C288.56,211.47,300,223.7,291.77,235.77Zm84-106.81c-3.48,11.2-16.9,19.32-30.81,14.14-13.11-4.89-18.12-19.66-14.1-30.49a24,24,0,0,1,31.38-14.26C373.52,102.59,381,116.29,375.72,129Zm71,100.9C443.29,241.06,429.11,245.6,416,244c-13.11-4.89-18.12-19.65-14.1-30.48,4.41-11.9,12.71-18.48,31.39-14.26C445,201.92,453,216.05,446.76,229.86ZM536.31,194c4.42-11.9,16.94-20.33,31.39-14.26,14.18,6,18.78,17.94,13.52,30.61-3.47,11.2-14.14,19.88-30.8,14.13C537.31,219.55,532.3,204.79,536.31,194Zm5,104.84c10.43,6.12,18.78,17.93,13.52,30.6-3.47,11.2-15,15.74-30.8,14.14C511,338.65,506,323.89,510,313.06,514.38,301.16,527.34,290.57,541.35,298.8Zm-64.5-189.13c-13.11-4.89-15.17-19-14.11-30.48,4.42-11.9,17.4-15.91,31.39-14.26,12,1.42,18.78,17.94,13.52,30.61C506,106.32,490.75,114.86,476.85,109.67ZM594.53,451.51c-4.68,9.54-17.71,17.69-30.92,12.76s-18.12-19.66-14.1-30.48c4.41-11.9,17.27-17.16,31.39-14.26C592.33,421.88,599.1,442.21,594.53,451.51Z" transform="translate(-26.96 -24.56)" fill="none" stroke="#453330" stroke-width="4"/><path d="M341.5,712.8c-4.77,0-9.46,0-14.06,0C244.76,710.4,165.67,702.4,115.83,691c-1.63-.37-3.24-.75-4.81-1.13a115.38,115.38,0,0,0-11.17,15.51c-9.58,16,29.67,39.76,56.23,46.51,26.07,6.62,50.89-10.6,60.8-18.75a6,6,0,0,1,8.52.87c12,15.08,29.2,30.29,42,33.67,9.31,2.44,31,11.18,70.29-1,35.39-10.91,53.78-19.85,64.69-34.28,5.52-7.3,3-15.24-3.17-22.32C379.48,712.74,359.93,712.86,341.5,712.8Z" transform="translate(-26.96 -24.56)" fill="none" stroke="#453330" stroke-width="4"/><path d="M135.53,453.56c45.4,17.38,79.05-22.59,79.05-22.59-4.2,31.31,64.16,74.67,100.44,18.12,30.45,34.89,89.92,41.83,139.88,18.69a70.43,70.43,0,0,0,33.27-29.88c21-36.89,9.22-89.84-4.54-111.39-13-20.34-56.94-69-103.09-77.93-71.3-13.75-128.77,27.79-128.77,63,0,2.34-29-44.38-98-10.09-3.85,1.91-7.83,4.07-11.93,6.52-5.86,3.49-12.51,9.44-19,17-21.14,24.76-40.39,67-24.3,98.39C104.89,435.68,116.52,446.28,135.53,453.56Z" transform="translate(-26.96 -24.56)" fill="none" stroke="#453330" stroke-width="4"/><path d="M139.61,606.32c-2.33-15.31-9-18.63-18.63-18.89-10.24-.28-18.73,8.49-18.7,18.74a18.63,18.63,0,0,0,18.8,18.6C131.09,624.7,140,616.13,139.61,606.32Z" transform="translate(-26.96 -24.56)" fill="#4f3330"/><path d="M365.09,650.21a19,19,0,0,0,18.71-18.27,19.22,19.22,0,0,0-19.4-19.26c-10.28,0-19.09,8.41-18.92,18.56C345.67,643.41,352.76,650.21,365.09,650.21Z" transform="translate(-26.96 -24.56)" fill="#4f3330"/></svg>