<svg xmlns="http://www.w3.org/2000/svg" xmlns:xlink="http://www.w3.org/1999/xlink" viewBox="0 0 678.23 753.4"><defs><clipPath id="a" transform="translate(31.21 -23.06)"><path d="M327.44,712.75c-113.66-3.23-220.56-17.15-254-36C-8.16,631.44,39,502.22,78.36,445.91c5.52-7.9,27.1-43.07,70.77-55.64,72.59-20.9,191.87-17,304,26.56,24.85,9.66,46.63,27.18,58.35,51.13,30.95,63.26,30.28,112.47.78,171.44a112.21,112.21,0,0,1-33.51,40C429.73,715.66,373.91,712.76,327.44,712.75Z" fill="none"/></clipPath><radialGradient id="b" cx="383.52" cy="689.31" r="56.92" gradientTransform="translate(-166.77 -560.65) scale(1.6 1.73)" gradientUnits="userSpaceOnUse"><stop offset="0.08" stop-color="#f99" stop-opacity="0.56"/><stop offset="0.39" stop-color="#ffb9a9" stop-opacity="0.33"/><stop offset="0.66" stop-color="#ffd3b5" stop-opacity="0.15"/><stop offset="0.88" stop-color="#ffe2bd" stop-opacity="0.04"/><stop offset="1" stop-color="#ffe8c0" stop-opacity="0"/></radialGradient><radialGradient id="c" cx="164.47" cy="665.96" r="56.92" xlink:href="#b"/></defs><path d="M76.48,448c-.4,3-16.23-7.21-22.59-25.86-5.44-15.93-10.8-31.83-4.33-54.67,18.14-64,76-135.37,174.21-217.08C331.29,67.59,404.55,23.17,485.12,26.76c2,0,86.39,13.56,111.72,109.9,10.9,41.44,50.85,191,46.33,293.58C638.57,534.58,613.08,588.52,589,616c-30,34.25-83.12,49-102.58,15.48" transform="translate(31.21 -23.06)" fill="#eb3333"/><path d="M355.75,688.85c16.88-1.29,61.79,23.56,46.68,43.55-10.91,14.43-29.3,23.37-64.69,34.28-39.32,12.13-61,3.39-70.29,1-12.85-3.38-30-18.59-42-33.67a6,6,0,0,0-8.52-.87c-9.91,8.15-34.73,25.37-60.8,18.75-26.56-6.75-65.81-30.48-56.23-46.51,16.78-28.07,43.15-42.85,44.47-45.46C152.64,643.41,341.53,690,355.75,688.85Z" transform="translate(31.21 -23.06)" fill="#80d251"/><g clip-path="url(#a)"><path d="M332,733.7c-55.23-3.36-101.31-5.25-155.68-17.92-55.6-11.39-70-16.77-103.38-35.63-47.4-35.55-41.78-71.61-42.55-80.26-2.71-30.36,8.08-94.27,47.45-150.58,15.38-22,20-21.63,38.74-39.58,30.91-3.14,188.94-60.94,374.56,22.32,46.75,29.42,55.47,77.54,54.77,103.74-.06,1.45,10.35,61.07-39.56,127.7C457.44,727.21,385.83,733.7,332,733.7Z" transform="translate(31.21 -23.06)" fill="#ffe1c5"/><ellipse cx="445.86" cy="629.9" rx="95.94" ry="92.47" fill="url(#b)"/><ellipse cx="95.94" cy="589.62" rx="95.94" ry="92.47" fill="url(#c)"/></g><path d="M365.09,650.21c-12.33,0-19.42-6.8-19.61-19-.17-10.15,8.64-18.56,18.92-18.56a19.22,19.22,0,0,1,19.4,19.26A19,19,0,0,1,365.09,650.21Z" transform="translate(31.21 -23.06)" fill="#333"/><path d="M102.28,606.17c0-10.25,8.46-19,18.7-18.74,9.64.26,16.3,3.58,18.63,18.89.41,9.81-8.52,18.38-18.53,18.45A18.63,18.63,0,0,1,102.28,606.17Z" transform="translate(31.21 -23.06)" fill="#333"/><path d="M554.87,329.4c5.26-12.67-3.09-24.48-13.52-30.6-14-8.23-27,2.36-31.39,14.26-4,10.83,1,25.59,14.11,30.48C539.86,345.14,551.4,340.6,554.87,329.4Z" transform="translate(31.21 -23.06)" fill="#ffffef"/><path d="M446.76,229.86c6.19-13.81-1.73-27.94-13.52-30.6-18.68-4.22-27,2.36-31.39,14.26-4,10.83,1,25.59,14.11,30.48C429.11,245.6,443.29,241.06,446.76,229.86Z" transform="translate(31.21 -23.06)" fill="#ffffef"/><path d="M375.72,129c5.25-12.67-2.2-26.37-13.53-30.61a24,24,0,0,0-31.38,14.26c-4,10.83,1,25.6,14.1,30.49C358.82,148.28,372.24,140.16,375.72,129Z" transform="translate(31.21 -23.06)" fill="#ffffef"/><path d="M507.65,95.54c5.26-12.67-1.51-29.19-13.52-30.61-14-1.65-27,2.36-31.39,14.26-1.06,11.53,1,25.59,14.11,30.48C490.75,114.86,506,106.32,507.65,95.54Z" transform="translate(31.21 -23.06)" fill="#ffffef"/><path d="M581.22,210.31c5.26-12.67.66-24.66-13.52-30.61-14.45-6.07-27,2.36-31.39,14.26-4,10.83,1,25.59,14.11,30.48C567.08,230.19,577.75,221.51,581.22,210.31Z" transform="translate(31.21 -23.06)" fill="#ffffef"/><path d="M291.77,235.77c8.25-12.07-3.21-24.3-13.52-30.61-13.25-8.1-27,2.36-31.39,14.26-4,10.83-1.35,25.05,14.1,30.49C274.87,255.09,288.3,247,291.77,235.77Z" transform="translate(31.21 -23.06)" fill="#ffffef"/><path d="M594.53,451.51c4.57-9.3-2.2-29.63-13.63-32-14.12-2.9-27,2.36-31.39,14.26-4,10.82,1,25.59,14.1,30.48S589.84,461.05,594.53,451.51Z" transform="translate(31.21 -23.06)" fill="#ffffef"/><path d="M152.25,310.42c5.26-12.67-3.4-28.79-13.52-30.61-14.5-2.6-27,2.36-31.39,14.26-4,10.83,1,29.1,14.11,30.49C135.35,329.74,148.78,321.62,152.25,310.42Z" transform="translate(31.21 -23.06)" fill="#ffffef"/><path d="M380.54,248.58c46.15,8.89,90.11,57.59,103.09,77.93C502,355.27,516.85,440,454.9,467.78c-50,23.14-109.43,16.2-139.88-18.69C278.74,505.64,210.38,462.28,214.58,431c0,0-33.65,40-79.05,22.59C52.84,421.9,109.41,327.38,141.89,308c77.52-46.2,109.88,6,109.88,3.57C251.77,276.37,309.24,234.83,380.54,248.58Z" transform="translate(31.21 -23.06)" fill="#473f3f"/><path d="M507.29,648.23C531.81,656,566.77,641.36,589,616c24.05-27.44,49.54-81.38,54.14-185.72,4.52-102.57-35.43-252.14-46.33-293.58C571.51,40.32,487.1,26.77,485.12,26.76c-80.57-3.59-153.83,40.83-261.35,123.65-98.23,81.71-156.07,153-174.21,217.08-6.47,22.84-1.11,38.74,4.33,54.67C60.25,440.81,76.08,451,76.48,448c0,0,15.7-19,22.13-24.58-16.09-31.41,3.16-73.63,24.3-98.39-.49-.15-1-.31-1.46-.49-13.09-1.39-18.13-19.66-14.11-30.49,4.42-11.9,16.89-16.86,31.39-14.26,7.83,1.41,14.78,11.38,15.09,21.7,68.92-34.29,98,12.43,98,10.09,0-35.23,57.47-76.77,128.77-63,46.15,8.89,90.11,57.59,103.09,77.93,13.76,21.55,25.54,74.5,4.54,111.39A96.49,96.49,0,0,1,511.43,468c30.95,63.26,30.28,112.47.78,171.44a112.21,112.21,0,0,1-33.51,40c-49,36.24-104.79,33.34-151.26,33.33-113.66-3.23-220.56-17.15-254-36-79.64-44.21-35.69-170.42,3-228.73M291.77,235.77c-3.47,11.2-16.9,19.32-30.81,14.14-15.45-5.44-18.12-19.66-14.1-30.49,4.41-11.9,18.14-22.36,31.39-14.26C288.56,211.47,300,223.7,291.77,235.77Zm84-106.81c-3.48,11.2-16.9,19.32-30.81,14.14-13.11-4.89-18.12-19.66-14.1-30.49a24,24,0,0,1,31.38-14.26C373.52,102.59,381,116.29,375.72,129Zm71,100.9C443.29,241.06,429.11,245.6,416,244c-13.11-4.89-18.12-19.65-14.1-30.48,4.41-11.9,12.71-18.48,31.39-14.26C445,201.92,453,216.05,446.76,229.86ZM536.31,194c4.42-11.9,16.94-20.33,31.39-14.26,14.18,6,18.78,17.94,13.52,30.61-3.47,11.2-14.14,19.88-30.8,14.13C537.31,219.55,532.3,204.79,536.31,194Zm5,104.84c10.43,6.12,18.78,17.93,13.52,30.6-3.47,11.2-15,15.74-30.8,14.14C511,338.65,506,323.89,510,313.06,514.38,301.16,527.34,290.57,541.35,298.8Zm-64.5-189.13c-13.11-4.89-15.17-19-14.11-30.48,4.42-11.9,17.4-15.91,31.39-14.26,12,1.42,18.78,17.94,13.52,30.61C506,106.32,490.75,114.86,476.85,109.67ZM594.53,451.51c-4.68,9.54-17.71,17.69-30.92,12.76s-18.12-19.66-14.1-30.48c4.41-11.9,17.27-17.16,31.39-14.26C592.33,421.88,599.1,442.21,594.53,451.51Z" transform="translate(31.21 -23.06)" fill="none" stroke="#453330" stroke-width="7"/><path d="M341.5,712.8c-4.77,0-9.46,0-14.06,0C244.76,710.4,165.67,702.4,115.83,691c-1.63-.37-3.24-.75-4.81-1.13a115.38,115.38,0,0,0-11.17,15.51c-9.58,16,29.67,39.76,56.23,46.51,26.07,6.62,50.89-10.6,60.8-18.75a6,6,0,0,1,8.52.87c12,15.08,29.2,30.29,42,33.67,9.31,2.44,31,11.18,70.29-1,35.39-10.91,53.78-19.85,64.69-34.28,5.52-7.3,3-15.24-3.17-22.32C379.48,712.74,359.93,712.86,341.5,712.8Z" transform="translate(31.21 -23.06)" fill="none" stroke="#453330" stroke-width="7"/><path d="M135.53,453.56c45.4,17.38,79.05-22.59,79.05-22.59-4.2,31.31,64.16,74.67,100.44,18.12,30.45,34.89,89.92,41.83,139.88,18.69a70.43,70.43,0,0,0,33.27-29.88c21-36.89,9.22-89.84-4.54-111.39-13-20.34-56.94-69-103.09-77.93-71.3-13.75-128.77,27.79-128.77,63,0,2.34-29-44.38-98-10.09-3.85,1.91-7.83,4.07-11.93,6.52-5.86,3.49-12.51,9.44-19,17-21.14,24.76-40.39,67-24.3,98.39C104.89,435.68,116.52,446.28,135.53,453.56Z" transform="translate(31.21 -23.06)" fill="none" stroke="#453330" stroke-width="7"/><path d="M139.61,606.32c-2.33-15.31-9-18.63-18.63-18.89-10.24-.28-18.73,8.49-18.7,18.74a18.63,18.63,0,0,0,18.8,18.6C131.09,624.7,140,616.13,139.61,606.32Z" transform="translate(31.21 -23.06)" fill="#4f3330"/><path d="M365.09,650.21a19,19,0,0,0,18.71-18.27,19.22,19.22,0,0,0-19.4-19.26c-10.28,0-19.09,8.41-18.92,18.56C345.67,643.41,352.76,650.21,365.09,650.21Z" transform="translate(31.21 -23.06)" fill="#4f3330"/></svg>